<?xml version="1.0" encoding="UTF-8"?><svg xmlns="http://www.w3.org/2000/svg" viewBox="0 0 324.07 216.1"><defs><style>.d{fill:#0086ff;}.e{fill:#fff;}</style></defs><g id="a"/><g id="b"><g id="c"><g><path class="d" d="M320.45,129.01c-.12-.72-.2-1.67-.36-2.72-.18-1.22-.42-2.44-.73-3.64-.55-2.11-1.32-4.16-2.12-6.19-.89-2.25-1.8-4.49-2.34-6.86-.58-2.53-.76-5.1-.68-7.69,.16-5.39,1.58-10.56,3.22-15.65,2.6-8.08,1.75-16.96,2.14-25.31,.1-2.08,.19-4.08,.05-6.17-.16-2.29-.41-4.57-.71-6.85-.53-4.04-1.18-8.08-1.19-12.16,0-2.02,.14-4.05,.48-6.04,.42-2.45,1.26-4.81,1.4-7.29,.17-3.24-.19-6.6-1.42-9.62-2.18-5.37-6.64-8.89-12.01-10.8-4.67-1.66-9.8-2.07-14.73-1.93-1.85,.05-3.69,.2-5.52,.43-2.95,.37-5.91,2.76-8.17,4.58-5.58,4.48-9.45,10.89-11.13,17.82-1.1,4.53-1.23,9.1-1,13.73,.13,2.62-.41,5.38-.88,7.96-.49,2.7-1.09,5.39-1.7,8.07-1.19,5.32-2.19,10.58-2.61,16.03-.42,5.55-.51,11.13-.41,16.7,.19,11.06,1.11,22.1,1.63,33.15,.13,2.77,.24,5.54,.3,8.31,.04,1.77,.24,3.09,.97,4.69,1.03,2.26,2.67,4.3,4.4,6.06,3.13,3.19,8.55,7.41,13.32,5.43,2.69-1.12,3.76-3.84,4.09-6.55,.53-4.29-.97-8.33-1.86-12.48-.77-3.61-1.39-7.14-1.45-10.83-.05-3.09,.19-5.34,1.34-8.28,0-.02,.02-.06,.04-.09,.06-.13,.11-.26,.18-.39,.14-.28,.28-.56,.43-.84,.34-.63,.72-1.24,1.13-1.82,.43-.6,.42-.6,.98-1.23,.51-.58,1.06-1.14,1.63-1.67,1.25-1.16,2.31-1.91,3.68-2.88,.53-.38,.96-.83,1.45-1.25,.07-.05,.29-.22,.39-.28,.26-.17,.54-.33,.82-.47,.1-.05,.39-.17,.47-.21,.17-.06,.34-.12,.51-.18,.24-.07,.48-.14,.73-.19,.14-.03,.27-.05,.41-.08h.04c.5-.02,.98-.03,1.47,.01,.11,.02,.22,.04,.32,.07,.26,.08,.52,.15,.78,.24,.1,.05,.2,.09,.3,.16,.08,.05,.45,.31,.5,.33,.13,.11,.26,.23,.38,.35,.09,.09,.17,.19,.26,.28,.02,.02,.02,.02,.03,.04,.01,.03,.02,.05,.05,.09,.52,.89,.9,1.96,.97,2.95,.3,4.16-1.5,7.92-2.64,11.82-1.03,3.5-1.58,7.03-.93,10.65,.78,4.39,3.23,8.31,5.38,12.13,2.07,3.67,4.35,7.67,7.69,10.34,1.54,1.23,3.27,2.15,5.27,2.26,2.06,.11,3.86-.86,5.4-2.14,.5-.42,.72-1.05,.72-1.69,0-.03,.01-.05,.01-.08,.23-4.16-.5-8.03-1.16-12.1Zm-37.59-24.34s0-.01,0,0h0Z"/><path class="d" d="M279.95,74.87c3.22,0,3.22-5,0-5s-3.22,5,0,5h0Z"/><g><path class="e" d="M276.02,68.19c6.5,12.04,12.56-.09,17.81,1.45,.94,.28,1.17,.96,2.94,.96,2.35,0,3.56-2.46,3.84-2.95,2.74-4.89-.94-10.66-2.1-16.31-1.41-6.88-1.23-14.02-1.68-21.06-.06-.87-.43-1.05-.76-1.84-.53-1.27-1.38-2.83-2.56-3.25-3.18-1.15-6.79,.28-9.2,2.89-2.42,2.61-3.8,6.24-4.63,9.91-1.11,4.9,.47,10.13-.63,15.05-.52,2.33-.81,2.74-1.62,4.96-1.14,3.13-2.94,6.73-1.38,10.17"/><path class="d" d="M273.86,69.45c2.07,3.75,5.26,7.21,9.91,6.49,3-.46,5.29-2.53,8-3.7-.48,.21,.47-.14,.6-.18s.26-.06,.39-.09c-.1,.02-.51,.14-.08,.02,.1-.03,.27,0,.39,0-.52-.01-.25-.05-.09,0,.6,.18-.25-.16,.11,.01,.19,.09,.36,.22,.55,.32,2.05,1.08,4.57,1.03,6.49-.31,3.67-2.56,4.41-7.43,3.62-11.53-.48-2.46-1.41-4.79-2.14-7.18-.78-2.57-1.2-5.21-1.46-7.88-.28-2.87-.4-5.76-.51-8.65-.05-1.37-.1-2.73-.17-4.1-.07-1.5,0-3.11-.69-4.48-1.03-2.06-2.02-4.37-4.3-5.29-2.47-1-5.25-.69-7.64,.36-4.76,2.08-7.47,6.87-8.93,11.63-.9,2.95-1.22,5.92-1.12,9s.44,5.99-.26,8.92c-1.24,5.23-5.18,10.52-2.9,16.02,.52,1.25,1.66,2.14,3.08,1.75,1.18-.32,2.27-1.82,1.75-3.08-1.59-3.84,1.26-8.08,2.44-11.69,1.49-4.55,.82-9.09,.87-13.76,.04-4.05,1.34-8.81,4.05-11.92,1.19-1.36,2.73-2.49,4.56-2.79,.64-.11,1.51-.15,2.13,.13s.93,1.14,1.21,1.73c.38,.81,.66,1.21,.69,2.03,.05,1.28,.13,2.57,.18,3.85,.1,2.57,.19,5.14,.36,7.7,.34,4.9,1.1,9.59,2.64,14.26,1.09,3.29,2.41,6.74,.53,9.96-.2,.34-.41,.68-.84,.93-.25,.14-.23,.16-.49,.17-.09,0-.85-.2-.51-.05-1.36-.59-2.41-1.18-3.96-1.03-3.02,.3-5.37,2.37-8.05,3.6-.88,.4-1.86,.56-2.71,.24,.35,.13-.42-.24-.54-.32-.25-.17-.47-.37-.76-.66-.85-.87-1.47-1.92-2.06-2.98-1.56-2.82-5.88-.3-4.32,2.52h0Z"/></g><path class="d" d="M251.07,47.04c4.14-4.76,6.52-10.51,7.64-16.68,.6-3.33,.93-6.7,1.19-10.07,.27-3.43,.63-6.95-.86-10.16-2.74-5.91-10.07-6.15-15.69-6.12-.16,0-.33,.01-.5,.04-.09,.01-.17,.02-.26,.04h-.02c-1.05,.3-2.19,.48-3.15,1.03-1.04,.6-1.68,1.65-2.26,2.65-2.09,3.61-4.35,7.15-6.02,10.98-.93,2.14-1.87,4.28-2.86,6.39-1,2.14-2.16,4.21-3.02,6.41-.71,1.8-1.25,3.76-2.62,5.18-1.08,1.12-2.44,1.87-3.95,2.23-3.06,.72-6.09-.88-7.31-3.78-1.51-3.59,.97-6.32,2.86-9.19,4.87-7.38,3.28-17.34-3.82-22.66-3.1-2.32-7.87-4.07-11.75-3.02-2.36,.64-3.68,2.56-4.92,4.52-1.23,1.95-2.25,4-3.11,6.14-1.64,4.07-2.5,8.58-2.14,12.97,.41,4.89,2.32,9.31,4,13.86,6.38,17.32,8.46,36.11,6.11,54.41-.57,4.47-1.45,8.92-2.57,13.29-1.19,4.66-2.64,9.25-3.57,13.97-.95,4.77-1.36,9.59-.54,14.41,.35,2.08,.88,4.4,2.37,5.99,1.53,1.62,3.77,2.27,5.91,2.56,7.37,1.02,15.03-2.8,18.86-9.15,4.92-8.18,1.6-17.7-.82-26.09-1.33-4.59-2.17-9.18-2.08-13.98,.04-2,.05-4.29,.96-6.13,.53-1.08,1.77-2.39,3.09-1.93,.79,.27,1.52,1.01,2.14,1.54,.73,.62,1.44,1.28,2.13,1.95,1.26,1.24,2.45,2.56,3.53,3.96,2.2,2.86,4.06,6.09,5.43,9.43,2.76,6.72,3.84,14.09,2.99,21.31-.21,1.75-.57,3.48-1.02,5.18-.46,1.71-1.12,3.36-1.43,5.1-.33,1.89-.42,3.92,.51,5.67,1.08,2.01,3.07,2.85,5.26,3.05,4.38,.39,8.95-.72,12.82-2.75,3.89-2.05,7.5-5.62,5.65-10.36-.81-2.07-2.22-3.81-3.78-5.38-1.16-1.17-2.17-2.09-2.96-3.48-1.7-2.98-2.41-6.46-3.17-9.76-.79-3.47-1.6-6.86-2.99-10.14-.74-1.75-1.49-3.49-2.32-5.2-.06-.13-.12-.25-.18-.38l-.02-.06c-.1-.28-.2-.56-.29-.85-.28-.85-.52-1.72-.75-2.58-2.16-7.96-3.56-16.48-9.7-22.53-1.59-1.57-3.28-3.03-5.05-4.39-.06-.05-.12-.09-.18-.14,8.22-5.57,17.64-9.7,24.24-17.29Z"/><g><path class="d" d="M80.72,127.06c-.72-5.29-1.45-10.59-1.45-15.94,0-5.34,.77-10.63,1.22-15.94,.45-5.37,.33-10.7-.21-16.06-.54-5.39-1.35-10.76-1.73-16.17-.37-5.28-.2-10.57,.09-15.86,.55-10.22,1.59-20.79-1.08-30.81-1.71-6.44-5.46-13.61-12.29-15.71-2.78-.85-5.69-.53-8.32,.65-4.04,1.81-6.25,5.64-7.44,9.74-1.41,4.83-2.17,9.94-2.85,14.92-.71,5.14-1.17,10.31-1.27,15.5-.19,9.86,1.34,19.62,1.33,29.47,0,2.2-.07,4.39-.27,6.58-.05,.5-.1,1-.17,1.5-.34-.78-.68-1.57-1.02-2.35-1.01-2.34-2.02-4.69-3.03-7.03-1.85-4.29-3.88-8.55-5.53-12.92-.71-1.88-1.1-3.82-1.61-5.75-.53-1.99-1.13-3.95-1.69-5.93-1.28-4.52-2.22-9.1-3.02-13.72-1.14-6.54-1.84-13.23-3.71-19.62-.96-3.26-1.97-7.2-5.08-9.06-1.43-.85-3.05-1.08-4.68-1.25-1.24-.13-2.23-.39-3.81-.49-3.11-.19-6.09,1.07-8.05,3.5C2.44,7.51,1.58,11.73,1.16,15.73c-.92,8.89,.65,17.88,.96,26.76,.35,10.16,0,20.34-.18,30.51-.17,10.15-.35,20.3-.52,30.46-.06,3.72,.09,7.51-.35,11.22-.17,1.49-.33,2.97-.46,4.47-.32,3.62-1.03,7.46-.27,11.05,.17,.82,.39,1.63,.59,2.44,.11,.44,.22,.88,.31,1.33,.09,.44,.1,.51,.11,.74,.01,.2,.05,.4,.11,.59,.42,2.09,1.65,4.45,3.54,5.45,1.56,.83,3.79,1.03,5.54,1.16,3.45,.26,5.92-2.42,8.28-4.56,6.73-6.12,5.69-17,3.17-24.89-.68-2.11-1.63-4.09-2.13-6.25-.54-2.32-.75-4.69-.92-7.07-.17-2.54-.53-5.14-.47-7.69,.05-2.35,.38-4.89,.87-7.18,0-.04,.02-.09,.03-.13,.16,.26,.32,.52,.48,.78,1.3,2.13,2.64,4.25,3.88,6.41,1.11,1.94,1.93,3.95,2.36,6.15,.48,2.41,.54,4.89,.8,7.33,.84,7.88,3.76,17.11,11.56,20.71,1.76,.81,3.47,.57,5.26,0,1.48-.47,3.02-.93,4.4-1.66,2.98-1.59,5.14-5.21,6.24-8.29,2.4-6.71-.04-13.98,.35-20.84,.11-1.87,.29-3.74,.45-5.61,.04-.53,.1-1.06,.15-1.59,0-.08,.02-.15,.03-.23,.04-.26,.08-.53,.13-.79,.6-3.44,1.4-6.84,2.02-10.27,.38-2.09,.73-4.18,1-6.29,.19-1.45,.26-2.93,.7-4.33,.34,1.62,.38,3.3,.41,4.94,.07,5.43-.07,10.86,0,16.28,.07,5.62,.22,11.25,.45,16.87,.23,5.44,.46,10.9,.96,16.33,.46,5.01,1.22,10.02,3.34,14.63,1.5,3.25,3.88,6.32,7.08,8.03,2.66,1.42,7.63,2.9,9.63-.23,1.33-2.08,.96-4.85,.73-7.18-.27-2.75-.64-5.49-1.01-8.23Zm-20.77-63.18h-.02s.03-.04,.02,0Zm-11.79,18.67s-.01,.05-.02,.08c-.01,.06-.03,.12-.04,.18-.07,0-.16-.07-.22-.3,0-.04-.03-.09-.05-.15,.18,.04,.28,.11,.33,.19Zm-28.09-.29l-.07,.04c.25-.66,.11-.03,.07-.04Zm39.9-18.39h0c.09-.15,.33-.07,0,0Z"/><path class="d" d="M186.02,114.11c-1.25-5.44-3.28-10.67-4.66-16.08-1.4-5.49-2.11-11.12-2.27-16.78-.33-11.69,2.1-23.1,3.39-34.66,1.14-10.28,.6-20.75-1.41-30.9-.34-1.71-.79-3.36-1.42-4.98,0-.02,0-.04,0-.06-.67-4.68-4.23-8.62-8.7-10.05-5.16-1.65-10.74,.58-15.07,3.34-4.14,2.65-7.76,6.36-9.02,11.23-1.4,5.39,.16,10.89,2.11,15.93,2,5.18,4.01,10.23,5.21,15.67,1.16,5.24,1.77,10.57,2.02,15.93,.54,11.58-.62,23.14-1.99,34.62-.71,5.93-1.47,11.85-2.09,17.78-.3,2.88-.8,5.88-.45,8.77,.35,2.84,1.77,5.06,3.41,7.32,3.03,4.17,6.54,8.44,11.37,10.58,4.8,2.12,10.13,1.88,14.26-1.54,3.28-2.73,5.12-7.06,5.91-11.17,.97-5.01,.55-10.02-.59-14.97Z"/><path class="d" d="M111.07,31.61h0c.22-.07,.13-.05,0,0Z"/><path class="d" d="M128.43,110.78c-2.04-.35-4.21-.59-6.01-1.69-1.11-.67-2.17-1.76-2.98-2.95-1.99-2.94-3.1-6.51-3.34-10.04-.08-1.13-.08-2.26,0-3.38,2.92,.6,5.84,1.2,8.77,1.8,1.9,.39,3.73,.69,5.2-.9,1.17-1.28,1.38-3.15,1.49-4.8,.4-6.07-1.32-12.62-4.89-17.57-1.62-2.24-3.62-4.32-6.09-5.62-1.08-.57-2.24-1.03-3.44-1.26-.63-.12-1.28-.21-1.93-.23-.71-.03-1.37,.11-2.04-.15-.89-.35-1.3-.86-1.67-1.47-.19-.32-.36-.64-.52-.97-.09-.19-.18-.38-.27-.58-.06-.13-.08-.19-.09-.2-.04-.09-.08-.19-.12-.28-.83-2.12-1.47-4.32-1.99-6.54-1.19-5.17-1.87-10.89-.58-16.1,.32-1.28,.72-2.57,1.28-3.77,.25-.55,.55-1.08,.88-1.58,.05-.08,.08-.13,.11-.17,.03-.03,.06-.06,.1-.11,.03-.04,.28-.28,.38-.38,.08-.06,.19-.14,.19-.14,.04-.03,.1-.05,.16-.08h.05s0-.01,0-.02h0s.11-.05,.23-.06c.03,0,.06-.01,.09-.02-.03,.01-.05,.02-.08,.02,.02,0,.05,0,.07,0,.07,0,.15,0,.22,0,.05,0,.11,0,.18,0,.03,0,.07,0,.1,0h-.06s.05,0,.07,.01c.35,.09,.69,.17,1.03,.28,1.69,.53,3.32,1.08,5.03,1.54,3.31,.91,6.42,2.5,9.84,3.03,3.45,.53,6.94,.1,9.13-2.91,1.83-2.52,2.12-5.7,2.68-8.67,.79-4.18,.78-8.48,1.13-12.72,.24-2.86,.78-6.25-.25-9.02-.5-1.33-1.42-2.43-2.8-2.87-1.16-.38-2.12,.07-3.2,.43-10.39,1.8-20.78,3.6-31.17,5.4-2.24,.39-4.69,.56-6.7,1.73-1.9,1.1-3.11,3.01-3.73,5.07-1.23,4.05-.48,8.47,.05,12.57,2.53,19.76,4.48,39.81,2.75,59.72-.42,4.83-1.08,9.63-2.02,14.38-.94,4.75-2.39,9.39-3.18,14.16-.79,4.73-.89,9.6,.68,14.19,1.29,3.79,3.49,7.33,6.51,9.98,3.23,2.84,7.05,4.4,11.31,4.92,4.92,.6,9.89-.37,14.73-1.17,2.5-.41,4.99-.82,7.49-1.24,1.87-.31,3.7-.74,5.4-1.62,3.9-2.01,5.62-6.23,5.88-10.41,.27-4.17-.96-8.42-3.53-11.72-2.65-3.4-6.36-5.14-10.53-5.86Z"/><path class="d" d="M111.61,31.56c-.1,0-.09,.02,.21,.01h-.04c-.06,0-.12,0-.18-.01Z"/><path class="d" d="M111.07,31.62s.1-.02,.24-.06h-.01c-.08,.02-.15,.04-.23,.06Z"/></g><path class="d" d="M24.56,149.02c3.22,0,3.22-5,0-5s-3.22,5,0,5h0Z"/><path class="d" d="M324.06,180.41c.05-5.28-.03-10.56-.13-15.84-.09-4.56,.44-10.28-2.7-14.02-2.84-3.38-7.91-3.2-10.55,.3-1.41,1.88-2.09,4.23-2.63,6.49-.57,2.4-.94,4.86-1.15,7.32-.41,4.95-.03,9.99,1.1,14.83,.56,2.38,1.51,4.84,1.31,7.32-.09,1.1-.4,2.19-.71,3.25-.18,.61-.33,1.25-.56,1.84-.04,.1-.22,.34-.18,.35-.12,.06-.2,.07-.08,.06-.3,0-.17,.06-.31-.01-.2-.1-.04-.01-.18-.2-.37-.49-.65-1.07-.93-1.61-1.03-2-1.65-4.17-2.06-6.38-.94-5.06-1.34-10.21-1.62-15.34-.14-2.66-.25-5.32-.36-7.98-.1-2.39-.11-4.91-.94-7.19-.76-2.09-2.07-3.89-3.71-5.38-1.6-1.44-3.53-3.2-5.65-3.79-4.56-1.29-7.65,3.14-8.5,7.05-1.06,4.84,.54,9.55,2.21,14.05,3.36,9.09,5.18,18.63,5.4,28.32,.06,2.53,.01,5.07-.14,7.6-.13,2.2-.52,4.42-.49,6.63,.03,2.14,.55,4.05,2.14,5.54,1.47,1.38,2.92,1.99,4.94,2.09,2.02,.09,4.1-.23,6.08-.58,1.57-.27,3.47-.43,4.77-1.41,1.82-1.38,1.54-3.51,1.13-5.48-.16-.76-.35-1.53-.6-2.27-.05-.14-.11-.36-.19-.6,.51,.31,.97,.66,1.41,1.07,1.02,.96,1.81,2.06,2.47,3.29,.72,1.35,1.03,2.97,2.21,4.02,.73,.65,1.66,.93,2.63,.96,.06,0,.14,0,.23,0,.95,.23,2.02,.16,3.05,.16,.05,0,.1-.01,.15-.01,.04,0,.08,0,.12-.01,.7-.06,1.23-.37,1.59-.82,.52-.61,.72-1.47,.55-2.32-.97-5.03-.14-10.24,.25-15.3,.41-5.33,.59-10.68,.64-16.03Z"/><path class="d" d="M284.77,184.45c-.72-1.45-1.56-2.85-2.49-4.17-.99-1.41-2.15-2.75-2.91-4.3-1.38-2.82-.99-6.42-.94-9.46,.03-1.76,.09-3.53,.37-5.26,.27-1.63,.88-3.18,1.13-4.81,.53-3.44-.19-6.83-2.81-9.23-.29-.27-.61-.45-.92-.55-.06-.03-.12-.06-.18-.09-5.46-2.21-12.61-4.15-17.31,.76-3.92,4.09-3.51,10.59-3.52,15.85-.01,6.14,.51,12.38,3.06,18.05,2.15,4.79,6.42,8.39,8.29,13.3,1.06,2.78,.74,5.58-.13,8.36-.98,3.11-3.3,6.53-.4,9.35,3.43,3.33,9.53,4.1,13.91,2.58,12.19-4.23,9.33-21.38,4.87-30.36Z"/><path class="e" d="M274.83,177.73c-.6-.88-1.13-1.81-1.72-2.7-.49-.74-1.14-1.64-1.29-2.55-.11-.68,.38-1.78,.65-2.54,.39-1.11,.55-2.12,.27-3.28-.47-1.93-1.85-3.76-3.21-5.16-.63-.65-1.36-.83-2.04-.71-.58,.04-1.13,.25-1.5,.71-.94,1.18-1.7,2.46-2.34,3.82-.66,1.42-1.36,2.99-1.32,4.6,.06,2.27,1.89,3.76,3.2,5.4,.53,.65,1.03,1.39,1.36,2.17,.4,.95,.35,1.85,.4,2.85,.13,2.42,1.17,4.63,3.26,5.97,1.16,.74,2.57,1.07,3.85,.39,1.07-.58,1.8-1.7,2.12-2.85,.63-2.28-.47-4.28-1.7-6.09Z"/><g><path class="d" d="M24.14,164.49c-.89,.05-3.36,.52-3.91-.5-.29-.54,.64-1.69,1.34-2,1.34-.59,3.37,.35,4.71,.7,1.87,.48,3.65,.64,5.49,0,2.49-.86,3.66-3.24,3.76-5.74,.17-4.66-2.88-10.29-7.2-12.23-1.18-.53-2.46-.83-3.76-.71-4.65-.19-9.28,.1-13.87,.81-2.09,.32-4.4,.58-6.36,1.4-2.17,.91-3.18,2.93-3.31,5.2-.23,3.99,1.79,7.82,2.98,11.52,1.33,4.14,1.02,8.25,.55,12.51-.5,4.45-.69,8.66,.08,13.1,.64,3.68,1.93,7.76,.87,11.48-.48,1.68-1.63,3.03-2.5,4.52-1.05,1.8-1.67,3.82-1.23,5.91,.91,4.34,5.68,5.88,9.5,4.51,3.55-1.27,7.19-3.61,8.73-7.18,1.86-4.32,.3-8.85-.55-13.21-.86-4.39-1.34-8.9-1.31-13.37,0-1.33,0-3.12,.82-4.25,.88-1.21,2.61-.47,3.72,0,3.18,1.33,6.42,3.08,9.88,1.45,3.7-1.75,4.18-6.48,2.24-9.71-2.34-3.9-6.46-4.42-10.65-4.2Z"/><path class="d" d="M73.54,194.49c-2.35-3.62-5.72-6.79-7.01-11-.67-2.17-1.03-4.41-2.05-6.47-.89-1.79-2.36-3.17-3.4-4.86-.31-.5-.58-1.03-.52-1.49,.03-.24,.15-.34,.15-.34,.14-.16,.23-.2,.38-.27,.03-.01,.14-.07,.19-.1,.12-.04,.25-.09,.37-.12,.3-.09,.61-.16,.91-.22,.79-.16,1.6-.26,2.4-.37,3.54-.51,7.13-2,7.87-5.93,.84-4.47-2.1-8.44-5.58-10.85-3.6-2.48-8-3.53-12.2-4.5-2.4-.56-4.81-1.11-7.21-1.67-1.99-.46-4.09-.72-5.93-1.59-2.05-.96-4.26-.89-5.22,1.29-.26,.42-.38,.91-.29,1.44,.04,.47,.23,.88,.51,1.2,2.2,3.7,1.78,8.33,1.79,12.47,0,5.3,0,10.59,.01,15.89,0,5.3,0,10.59,.01,15.89v7.69c0,2.15-.03,4.27,.31,6.4,.59,3.71,2.91,7.55,7.12,7.53,4.9-.02,7.87-5.05,7.53-9.5-.2-2.55-1.09-4.87-1.98-7.24-.79-2.11-1.53-4.25-1.21-6.53,.32-2.29,1.13-4.47,1.22-6.8,.05-1.21-.16-2.4-.47-3.56-.05-.21-.22-.59-.22-.85,.05,.04,.23-.07,.48-.1,1.73-.21,3.03,1.36,3.74,2.72,.98,1.86,1.36,4.14,1.63,6.21,.61,4.76,.46,9.61,1.51,14.32,.92,4.14,3,8.87,7.43,10.16,4.33,1.26,8.51-1.83,10.13-5.71,1.84-4.42,.07-9.32-2.39-13.12Z"/></g><g><path class="e" d="M45.92,158.78s0-.02,0-.04c-.03,.12-.04,.21-.04,.3,.02-.08,.02-.16,.04-.24v-.02Z"/><path class="e" d="M59.79,159.08c-1.24-2.11-3.71-3.35-6.01-3.9-2.48-.59-6.8-.94-7.74,2.18-.12,.38-.18,.93-.12,1.39,.03-.13,.07-.28,.16-.46-.07,.15-.11,.33-.15,.49,.02,.13,.05,.26,.1,.37,.12,.29-.14,.29-.14-.11-.15,.7-.24,1.42-.21,2.13,.05,1.4,.39,2.76,.78,4.1,.09,.32,.25,.61,.46,.87,.08,.1,.17,.19,.26,.27,.03,.03,.05,.06,.08,.08,.02,.01,.03,.02,.05,.04,.61,.5,1.44,.74,2.23,.49,2.38-.42,4.79-.78,7.16-1.28,1.34-.28,2.66-1.01,3.32-2.26,.75-1.41,.59-3.06-.21-4.4Z"/></g><g><path class="d" d="M255.23,147.73c-1.11-2.06-3.62-2.47-5.74-2.56-.08,0-.14,0-.22,.01-.11,0-.22-.02-.34-.01-3.41,.21-6.81,.42-10.22,.64-3.24,.2-6.7,.1-9.88,.82-2.98,.68-5.47,2.89-6.2,5.9-.7,2.88,.5,5.96,3.14,7.4,1.12,.61,2.36,.92,3.63,1.01,1.48,.1,2.97-.29,4.45-.15,2.34,.22,3.3,2.81,3.83,4.78,1.51,5.56,.74,11.54-.11,17.15-.88,5.83-2.01,11.75-1.64,17.67,.34,5.29,1.95,13.65,8.63,14.05,6.08,.37,7.36-7.28,7.7-11.83,.34-4.63-.11-9.3-.7-13.89-.75-5.81-1.79-11.57-2.75-17.35-.7-4.19-1.4-8.36-1.62-12.6,2.82-1.27,5.5-3.48,7.23-5.84,1.09-1.49,1.72-3.48,.79-5.21Z"/><path class="d" d="M228,192.59c-1.86-1.48-4.19-2.03-6.54-1.88-1.2,.08-2.4,.28-3.57,.51-.38,.07-.79,.18-1.19,.27,.05-.5,.09-1.01,.1-1.52,.03-1.11-.03-2.22-.15-3.33-.27-2.39-.88-4.64-1.64-6.91-.68-2.04-1.46-4.14-1.56-6.32-.1-2.17,.35-4.27,.89-6.37,.94-3.68,1.88-7.34,2.17-11.14,.24-3.2-.01-6.86-2.27-9.34-.06-.08-.12-.16-.19-.23h0v-.02c-.13-.13-.27-.24-.42-.34-.02-.01-.04-.02-.06-.04-.09-.05-.18-.1-.27-.14-.25-.12-.51-.19-.77-.2-1.96-.39-4.04-.69-5.98-.05-1.9,.63-3.45,2.04-4.31,3.84-1.75,3.69-1.27,7.96-.94,11.9,.82,9.69,2.43,19.29,3.62,28.93,.59,4.82,1.08,9.66,1.31,14.51,.1,2.2,0,4.57,1.16,6.54,.94,1.6,2.61,2.71,4.42,3.07,1.82,.36,3.63,.2,5.44-.13,2.36-.43,4.71-.93,7.06-1.4,2.39-.47,4.9-.78,7.24-1.44,1.23-.35,2.1-1.23,2.31-2.51,.18-1.12-.28-2.34-.54-3.42-1.01-4.32-1.59-9.9-5.31-12.87Z"/><path class="d" d="M105.85,198.99c-1.15-.82-2.53-1.35-3.9-1.71-.69-.18-1.39-.32-2.1-.45-.34-.06-1.03-.3-1.55-.39,.21-.6,.48-1.18,.69-1.78,.52-1.45,.81-2.95,1-4.47,.24-1.96,.19-3.94-.12-5.89,.21,.03,.43,.06,.63,.05,1.58-.02,3.14-.88,4.23-1.99,1.83-1.84,2.05-4.44,.88-6.7-.83-1.6-2.32-3.07-3.93-3.88-.97-.48-2.06-.86-3.09-1.18-.36-.11-.73-.13-1.09-.19-.02-.01-.06-.04-.17-.08-.31-.13-.65-.22-.96-.33-.77-.27-2.08-.49-2.64-1.13-.69-.79-.44-2.34-.4-3.28,.05-.96,.1-2.1,.58-2.94,.34-.59,.61-.6,1.45-.49,.83,.11,1.89,.44,2.82,.58,2.92,.43,5.94-.83,6.53-4.01,.26-1.43,.16-2.97,.22-4.42,.05-1.16-.14-2.36-.37-3.5-.43-2.09-1.33-4.97-3.34-6.12-.38-.3-.88-.5-1.51-.5h-8.81c-2.77,0-5.65-.22-8.4,.11-2.77,.34-4.82,1.92-5.79,4.54-.78,2.12-.66,4.51-.56,6.74,.11,2.56,.3,5.18,1,7.66,.76,2.69,2.2,4.86,3.9,7.04,1.51,1.93,2.76,3.91,3.52,6.25,.75,2.33,1.17,4.76,1.3,7.21,.28,5.22-.74,10.16-2.77,14.96-1.98,4.67-3.72,10.61,1.19,14.17,1.86,1.34,4.22,1.75,6.46,1.86,2.56,.13,5.19,.01,7.73-.32,4.65-.61,10.41-2.76,11.04-8.14,.35-2.97-1.31-5.61-3.66-7.28Z"/><path class="d" d="M197.7,199.51c-1.18-.81-2.58-1.32-3.96-1.67-.27-.07-2.38-.49-3.47-.72,.02-.09,.05-.18,.06-.21,.24-.7,.56-1.38,.79-2.08,.47-1.44,.74-2.92,.91-4.41,.21-1.89,.15-3.81-.15-5.7,.1,.01,.19,.02,.28,.03,1.35,.06,2.69-.4,3.64-1.37,1.78-1.81,1.47-4.6,.5-6.72-1.03-2.24-3.19-4.04-5.31-5.21-1.04-.58-2.15-.99-3.27-1.37-.76-.26-1.8-.5-2.18-1.27-.4-.82-.24-1.95-.2-2.83,.04-.95,.09-1.97,.45-2.87,.11-.26,.24-.48,.38-.63,.04-.05,.06-.08,.07-.1,.03,0,.05-.01,.07-.02,.1,0,.21-.01,.31,0,.08,0,.13,0,.17,0,.02,0,.02,0,.05,.01,.45,.08,.89,.2,1.32,.32,1.62,.46,3.42,1.15,5.11,.61,2.53-.81,2.79-3.53,3.02-5.8,.26-2.57,.49-4.89-.05-7.45-.4-1.89-1.22-4.32-3.01-5.36-.38-.3-.88-.49-1.51-.49-2.94,0-5.88,0-8.81,0-2.77,0-5.65-.22-8.4,.11-2.78,.34-4.83,1.94-5.79,4.58-.79,2.15-.66,4.56-.56,6.81,.11,2.66,.31,5.38,1.06,7.94,.79,2.7,2.28,4.87,3.98,7.07,3.15,4.07,4.5,8.79,4.71,13.91,.22,5.3-.93,10.23-2.97,15.1-1.94,4.64-3.41,10.58,1.49,13.98,1.84,1.28,4.13,1.67,6.32,1.79,2.67,.14,5.41,0,8.06-.37,4.71-.66,10.32-3.06,10.76-8.5,.23-2.9-1.54-5.54-3.86-7.12Zm-8.09-2.53s.02,0,.04,.01c-.03,0-.04-.01-.04-.01Z"/><path class="d" d="M133.23,196.38c-1.44-.83-3.13-.11-4.43,.65-1.07,.63-2.02,1.57-2.79,2.05-.31-.23-.45-.28-.63-.71-.48-1.15-.52-2.73-.79-4.01-.37-1.76-.82-3.5-1.16-5.28-.37-1.97-1.01-3.89-1.29-5.86-.55-3.88-.07-7.94,.15-11.83,.11-1.94,.21-3.87,.27-5.81,.03-.86,.03-1.72,.06-2.57,.02-.45-.03-1.21,.22-1.61,.46-.76,1.68,.12,2.21,.48,.87,.6,1.6,1.24,2.73,1.27,.91,.02,1.77-.32,2.51-.83,2.71-1.84,3.46-5.64,2.34-8.61-.9-2.37-2.86-3.73-4.98-4.96-2.28-1.32-4.68-2.42-7.12-3.42-.81-.33-1.63-.66-2.48-.91-.29-.08-.55-.11-.81-.1-3.29-.38-6.79,.86-7.97,4.2-.63,1.79-.32,3.77-.17,5.6,.16,2.01,.32,4.03,.48,6.04,.66,8.32,1.32,16.64,1.98,24.96,.68,8.52,1.36,17.04,2.05,25.56,.18,2.15,.55,4.25,2.81,5.1,1.61,.61,3.38,.2,5.07,.24,1.57,.03,3.13,.1,4.68-.28,1.42-.35,2.69-1.1,3.92-1.87,2.1-1.32,4.41-2.72,4.99-5.29,.47-2.11,.53-4.38,.37-6.52-.14-1.91-.35-4.57-2.22-5.66Zm-7.17,2.75h.01c-.05,.05-.09,.05-.11,.02l.1-.02Zm.02,0h0s.03-.01,.03,0c0,0-.01,0-.02,0Zm-.09-.04s-.03,.02-.04,.03c0-.02,.01-.03,.04-.03Z"/><path class="d" d="M164.97,183.77c-.8-1.84-1.8-3.56-3.12-5.09-1.36-1.58-3.02-2.55-4.88-3.43-1.79-.85-2.4-2.21-2.88-4.08-.26-1.01-.45-2.04-.6-3.07-.13-.86-.28-1.75,.26-2.49,1.16-1.6,3.35-2.52,4.9-3.69,1.9-1.45,3.39-3.14,4.28-5.38,1.65-4.17,.08-9.64-4.8-10.53-4.35-.8-8.68,2.33-10.16,6.29-.33,.89-.53,1.79-.64,2.73-.02,.2-.05,.4-.06,.6,.02-.02,.06-.06,.16-.12-.03,.02-.06,.06-.09,.09,.01-.01,.02-.03,.04-.04-.03,.03-.05,.04-.07,.06h0s-.02,.02-.03,.02v.02s-.03,.02-.04,.04c0,0-.02,.01-.05,.02-.77-3.79,.66-8.64-3.64-10.7-1.64-.79-3.7-1.12-5.46-.49-.02,0-.04,.02-.07,.03-.46,.14-.84,.41-1.12,.76-.04,.04-.07,.09-.11,.14-.03,.04-.06,.08-.09,.12-.26,.37-.42,.81-.44,1.28,0,.03-.01,.06-.01,.08-.46,4.99,.96,9.85,1.92,14.7,.46,2.32,.73,4.63,.64,6.99-.11,2.68-.48,5.34-.53,8.02-.1,5.3,.31,10.63,.54,15.93l.36,8.1c.11,2.55,.1,5.13,.41,7.67,.28,2.35,1.12,4.73,3.27,6,1.93,1.13,4.29,1.13,6.41,.59,2.17-.55,4.18-1.82,5.29-3.8,1.21-2.16,1.16-4.7,.75-7.07-.86-4.93-3.16-9.58-3.85-14.54-.14-.97-.18-2.05,.13-3,0-.01,.03-.06,.05-.1,.01,.02,.04,.04,.05,.05,1.18,1.59,1.65,3.71,1.93,5.63,.28,1.92,.58,3.7,1.2,5.55,.62,1.83,1.34,3.61,1.98,5.43,1.35,3.83,2.24,8.31,6.32,10.24,2.18,1.03,4.76,.94,6.47-.92,1.42-1.55,2.11-3.85,2.12-5.92,0-3.98-1.92-7.72-3.21-11.39-1.32-3.75-1.93-7.66-3.52-11.34Zm-17.7-28.06c-.07,.15-.05,.09,0,0h0Z"/><path class="d" d="M147.28,155.64h0s-.02,0,0,0Z"/></g></g></g></g></svg>